<svg version="1.2" xmlns="http://www.w3.org/2000/svg" viewBox="0 0 512 512" width="512" height="512">
	<title>New Project</title>
	<style>
		.s0 { fill: #000000 }

		@media (prefers-color-scheme: dark) {
      .s0 { fill: #fff }
    } 
	</style>
	<path id="P" class="s0" aria-label="P"  d="m67.1 188.5l76.6-89.1 312.5-31.8q7.1-0.6 14.9 9.6 7.8 10.2 14.4 23.9 7.2 13.8 11.4 27.6 4.8 13.2 6 19.1l-258 177.8-79.1-24.5-23.3 77.2q1.2 0-7.8 4.8-8.4 4.8-22.1 12-13.8 7.2-30.6 16.1-16.7 8.4-31.7 15.6-14.4 7.2-24.5 12-10.2 4.8-11.4 4.8l-5.4 0.6 73-244.3zm246.7-16.1l-113.8 11.9-28.7 96.4 148.4-99.4q-0.6-3-2.3-5.9-1.8-3-3.6-3z"/>
</svg>